<svg xmlns="http://www.w3.org/2000/svg" viewBox="0 0 110 149"><defs><style>.cls-1{fill:#101010;}</style></defs><g id="Layer_2" data-name="Layer 2"><g id="Layer_1-2" data-name="Layer 1"><path class="cls-1" d="M86.3,62.62A31.19,31.19,0,1,1,84,50.55,31.29,31.29,0,0,1,86.3,62.62Z"/><path class="cls-1" d="M54.86,149H9c-6.65,0-9.36-2.9-9-9.52C1.27,116.4,18.83,98.87,42.71,98c11.27-.43,22.77-.45,33.77,1.51C95.85,103,109.34,120.37,110,140.1c.19,5.86-2.58,8.81-8.47,8.83Q78.17,149,54.86,149Z"/><path class="cls-1" d="M79,0c6.53,9.41,11.64,19.05,8.16,30.88-1.61,5.53-5.38,9.64-10.14,12.7C73,46.15,65,41.78,65,37A4.21,4.21,0,0,1,66.51,34c8.95-5.71,12-14.43,12.45-24.44C79.12,6.48,79,3.45,79,0Z"/><path class="cls-1" d="M29.64,0C23.09,9.41,18,19.05,21.47,30.88c1.61,5.53,5.38,9.64,10.13,12.7,4,2.57,12.07-1.8,12-6.5a4.26,4.26,0,0,0-.45-1.71A4.16,4.16,0,0,0,42.1,34C33.18,28.25,30.16,19.53,29.69,9.52,29.52,6.48,29.64,3.45,29.64,0Z"/></g></g></svg>