<svg xmlns="http://www.w3.org/2000/svg" viewBox="0 0 251.06 250.98"><defs><style>.cls-1{fill:#666;}</style></defs><g id="Layer_2" data-name="Layer 2"><g id="Layer_1-2" data-name="Layer 1"><path class="cls-1" d="M125.61,251q-53.86,0-107.73,0c-4.8,0-9.3-.53-13-4.07-4.8-4.59-5.78-10.24-4.13-16.2a13.72,13.72,0,0,1,12.08-10.53,44.1,44.1,0,0,1,8-.33c2.21.12,3.12-.77,3.88-2.71,5.37-13.91,10.9-27.77,16.28-41.68.78-2,1.71-2.88,4-2.87q80.51.1,161,0c2.27,0,3.3.71,4.11,2.79,5.33,13.72,10.86,27.36,16.16,41.09,1,2.47,2,3.68,4.89,3.4a30.49,30.49,0,0,1,7.44.35c7.73,1.11,12.74,7.71,12.38,16.07-.34,8.05-6,14-13.82,14.51-1.69.11-3.38.16-5.08.16Z"/><path class="cls-1" d="M196.52,141H54.73c.39-1.12.67-2,1-2.92,5.45-13.78,11-27.54,16.32-41.35.78-2,1.79-2.62,3.89-2.62q49.67.11,99.31,0c1.7,0,2.89.09,3.66,2.07,5.58,14.37,11.31,28.69,17,43C196.09,139.65,196.23,140.11,196.52,141Z"/><path class="cls-1" d="M85.65,62.22c2.35-6.08,4.56-11.82,6.8-17.55q6.35-16.29,12.7-32.57C108.61,3.26,113.39-.08,122.9,0a67.56,67.56,0,0,1,12.17.86c5.07,1,8.31,4.65,10.16,9.31,6.7,17,13.28,33.95,19.89,50.93a6,6,0,0,1,.15,1.12Z"/></g></g></svg>